<svg width="227" height="165" viewBox="0 0 227 165" fill="none" xmlns="http://www.w3.org/2000/svg">
<path d="M5.94511 159L0.345109 138.14H4.43311L8.82911 155.92H7.76511L12.3571 138.14H16.3051L20.8691 155.92H19.8051L24.2011 138.14H28.2891L22.6891 159H18.3211L13.7011 141.696H14.9331L10.3131 159H5.94511ZM36.6136 159.336C35.0456 159.336 33.6736 158.981 32.4976 158.272C31.3216 157.563 30.407 156.601 29.7536 155.388C29.1003 154.175 28.7736 152.831 28.7736 151.356C28.7736 149.825 29.1003 148.472 29.7536 147.296C30.4256 146.101 31.331 145.159 32.4696 144.468C33.627 143.777 34.915 143.432 36.3336 143.432C37.5283 143.432 38.5736 143.628 39.4696 144.02C40.3843 144.412 41.159 144.953 41.7936 145.644C42.4283 146.335 42.9136 147.128 43.2496 148.024C43.5856 148.901 43.7536 149.853 43.7536 150.88C43.7536 151.141 43.735 151.412 43.6976 151.692C43.679 151.972 43.6323 152.215 43.5576 152.42H31.7976V149.62H41.4856L39.7496 150.936C39.9176 150.077 39.871 149.312 39.6096 148.64C39.367 147.968 38.9563 147.436 38.3776 147.044C37.8176 146.652 37.1363 146.456 36.3336 146.456C35.5683 146.456 34.887 146.652 34.2896 147.044C33.6923 147.417 33.235 147.977 32.9176 148.724C32.619 149.452 32.507 150.339 32.5816 151.384C32.507 152.317 32.6283 153.148 32.9456 153.876C33.2816 154.585 33.767 155.136 34.4016 155.528C35.055 155.92 35.8016 156.116 36.6416 156.116C37.4816 156.116 38.191 155.939 38.7696 155.584C39.367 155.229 39.8336 154.753 40.1696 154.156L43.1376 155.612C42.839 156.34 42.3723 156.984 41.7376 157.544C41.103 158.104 40.347 158.543 39.4696 158.86C38.611 159.177 37.659 159.336 36.6136 159.336ZM46.5342 159V137.804H50.2022V159H46.5342ZM60.9249 159.336C59.4129 159.336 58.0502 158.991 56.8369 158.3C55.6422 157.591 54.6995 156.639 54.0089 155.444C53.3182 154.231 52.9729 152.868 52.9729 151.356C52.9729 149.844 53.3182 148.491 54.0089 147.296C54.6995 146.101 55.6422 145.159 56.8369 144.468C58.0502 143.777 59.4129 143.432 60.9249 143.432C62.0075 143.432 63.0155 143.628 63.9489 144.02C64.8822 144.393 65.6849 144.916 66.3569 145.588C67.0475 146.241 67.5422 147.025 67.8409 147.94L64.6209 149.34C64.3409 148.575 63.8649 147.959 63.1929 147.492C62.5395 147.025 61.7835 146.792 60.9249 146.792C60.1222 146.792 59.4035 146.988 58.7689 147.38C58.1529 147.772 57.6675 148.313 57.3129 149.004C56.9582 149.695 56.7809 150.488 56.7809 151.384C56.7809 152.28 56.9582 153.073 57.3129 153.764C57.6675 154.455 58.1529 154.996 58.7689 155.388C59.4035 155.78 60.1222 155.976 60.9249 155.976C61.8022 155.976 62.5675 155.743 63.2209 155.276C63.8742 154.809 64.3409 154.184 64.6209 153.4L67.8409 154.856C67.5422 155.715 67.0569 156.489 66.3849 157.18C65.7129 157.852 64.9102 158.384 63.9769 158.776C63.0435 159.149 62.0262 159.336 60.9249 159.336ZM78.072 159.336C76.5787 159.336 75.216 158.991 73.984 158.3C72.7707 157.609 71.8 156.667 71.072 155.472C70.3627 154.277 70.008 152.915 70.008 151.384C70.008 149.853 70.3627 148.491 71.072 147.296C71.8 146.101 72.7707 145.159 73.984 144.468C75.1973 143.777 76.56 143.432 78.072 143.432C79.5653 143.432 80.9187 143.777 82.132 144.468C83.3453 145.159 84.3067 146.101 85.016 147.296C85.744 148.472 86.108 149.835 86.108 151.384C86.108 152.915 85.744 154.277 85.016 155.472C84.288 156.667 83.3173 157.609 82.104 158.3C80.8907 158.991 79.5467 159.336 78.072 159.336ZM78.072 155.976C78.8933 155.976 79.612 155.78 80.228 155.388C80.8627 154.996 81.3573 154.455 81.712 153.764C82.0853 153.055 82.272 152.261 82.272 151.384C82.272 150.488 82.0853 149.704 81.712 149.032C81.3573 148.341 80.8627 147.8 80.228 147.408C79.612 146.997 78.8933 146.792 78.072 146.792C77.232 146.792 76.4947 146.997 75.86 147.408C75.2253 147.8 74.7213 148.341 74.348 149.032C73.9933 149.704 73.816 150.488 73.816 151.384C73.816 152.261 73.9933 153.055 74.348 153.764C74.7213 154.455 75.2253 154.996 75.86 155.388C76.4947 155.78 77.232 155.976 78.072 155.976ZM88.8896 159V143.768H92.3336V147.296L91.9416 146.708C92.2216 145.607 92.7816 144.785 93.6216 144.244C94.4616 143.703 95.451 143.432 96.5896 143.432C97.8403 143.432 98.9416 143.759 99.8936 144.412C100.846 145.065 101.462 145.924 101.742 146.988L100.706 147.072C101.172 145.859 101.872 144.953 102.806 144.356C103.739 143.74 104.812 143.432 106.026 143.432C107.108 143.432 108.07 143.675 108.91 144.16C109.768 144.645 110.44 145.327 110.926 146.204C111.411 147.063 111.654 148.061 111.654 149.2V159H107.986V150.068C107.986 149.396 107.864 148.817 107.622 148.332C107.379 147.847 107.043 147.473 106.614 147.212C106.184 146.932 105.662 146.792 105.046 146.792C104.467 146.792 103.954 146.932 103.506 147.212C103.058 147.473 102.712 147.847 102.47 148.332C102.227 148.817 102.106 149.396 102.106 150.068V159H98.4376V150.068C98.4376 149.396 98.3163 148.817 98.0736 148.332C97.831 147.847 97.4856 147.473 97.0376 147.212C96.6083 146.932 96.095 146.792 95.4976 146.792C94.919 146.792 94.4056 146.932 93.9576 147.212C93.5096 147.473 93.1643 147.847 92.9216 148.332C92.679 148.817 92.5576 149.396 92.5576 150.068V159H88.8896ZM121.981 159.336C120.413 159.336 119.041 158.981 117.865 158.272C116.689 157.563 115.774 156.601 115.121 155.388C114.467 154.175 114.141 152.831 114.141 151.356C114.141 149.825 114.467 148.472 115.121 147.296C115.793 146.101 116.698 145.159 117.837 144.468C118.994 143.777 120.282 143.432 121.701 143.432C122.895 143.432 123.941 143.628 124.837 144.02C125.751 144.412 126.526 144.953 127.161 145.644C127.795 146.335 128.281 147.128 128.617 148.024C128.953 148.901 129.121 149.853 129.121 150.88C129.121 151.141 129.102 151.412 129.065 151.692C129.046 151.972 128.999 152.215 128.925 152.42H117.165V149.62H126.853L125.117 150.936C125.285 150.077 125.238 149.312 124.977 148.64C124.734 147.968 124.323 147.436 123.745 147.044C123.185 146.652 122.503 146.456 121.701 146.456C120.935 146.456 120.254 146.652 119.657 147.044C119.059 147.417 118.602 147.977 118.285 148.724C117.986 149.452 117.874 150.339 117.949 151.384C117.874 152.317 117.995 153.148 118.313 153.876C118.649 154.585 119.134 155.136 119.769 155.528C120.422 155.92 121.169 156.116 122.009 156.116C122.849 156.116 123.558 155.939 124.137 155.584C124.734 155.229 125.201 154.753 125.537 154.156L128.505 155.612C128.206 156.34 127.739 156.984 127.105 157.544C126.47 158.104 125.714 158.543 124.837 158.86C123.978 159.177 123.026 159.336 121.981 159.336ZM138.642 159V147.044H135.954V143.768H138.642V143.264C138.642 142.107 138.875 141.127 139.342 140.324C139.827 139.503 140.499 138.877 141.358 138.448C142.217 138.019 143.234 137.804 144.41 137.804C144.634 137.804 144.877 137.823 145.138 137.86C145.418 137.879 145.651 137.907 145.838 137.944V141.108C145.651 141.071 145.474 141.052 145.306 141.052C145.157 141.033 145.017 141.024 144.886 141.024C144.065 141.024 143.43 141.211 142.982 141.584C142.534 141.939 142.31 142.499 142.31 143.264V143.768H145.698V147.044H142.31V159H138.642ZM148.198 159V143.768H151.642V147.156L151.362 146.652C151.717 145.513 152.268 144.72 153.014 144.272C153.78 143.824 154.694 143.6 155.758 143.6H156.654V146.848H155.338C154.293 146.848 153.453 147.175 152.818 147.828C152.184 148.463 151.866 149.359 151.866 150.516V159H148.198ZM158.671 159V143.768H162.339V159H158.671ZM158.671 142.06V138.14H162.339V142.06H158.671ZM172.95 159.336C171.382 159.336 170.01 158.981 168.834 158.272C167.658 157.563 166.743 156.601 166.09 155.388C165.436 154.175 165.11 152.831 165.11 151.356C165.11 149.825 165.436 148.472 166.09 147.296C166.762 146.101 167.667 145.159 168.806 144.468C169.963 143.777 171.251 143.432 172.67 143.432C173.864 143.432 174.91 143.628 175.806 144.02C176.72 144.412 177.495 144.953 178.13 145.644C178.764 146.335 179.25 147.128 179.586 148.024C179.922 148.901 180.09 149.853 180.09 150.88C180.09 151.141 180.071 151.412 180.034 151.692C180.015 151.972 179.968 152.215 179.894 152.42H168.134V149.62H177.822L176.086 150.936C176.254 150.077 176.207 149.312 175.946 148.64C175.703 147.968 175.292 147.436 174.714 147.044C174.154 146.652 173.472 146.456 172.67 146.456C171.904 146.456 171.223 146.652 170.626 147.044C170.028 147.417 169.571 147.977 169.254 148.724C168.955 149.452 168.843 150.339 168.918 151.384C168.843 152.317 168.964 153.148 169.282 153.876C169.618 154.585 170.103 155.136 170.738 155.528C171.391 155.92 172.138 156.116 172.978 156.116C173.818 156.116 174.527 155.939 175.106 155.584C175.703 155.229 176.17 154.753 176.506 154.156L179.474 155.612C179.175 156.34 178.708 156.984 178.074 157.544C177.439 158.104 176.683 158.543 175.806 158.86C174.947 159.177 173.995 159.336 172.95 159.336ZM182.87 159V143.768H186.314V146.764L186.034 146.232C186.389 145.317 186.967 144.627 187.77 144.16C188.591 143.675 189.543 143.432 190.626 143.432C191.746 143.432 192.735 143.675 193.594 144.16C194.471 144.645 195.153 145.327 195.638 146.204C196.123 147.063 196.366 148.061 196.366 149.2V159H192.698V150.068C192.698 149.396 192.567 148.817 192.306 148.332C192.045 147.847 191.681 147.473 191.214 147.212C190.766 146.932 190.234 146.792 189.618 146.792C189.021 146.792 188.489 146.932 188.022 147.212C187.555 147.473 187.191 147.847 186.93 148.332C186.669 148.817 186.538 149.396 186.538 150.068V159H182.87ZM206.552 159.336C205.077 159.336 203.761 158.991 202.604 158.3C201.446 157.591 200.532 156.629 199.86 155.416C199.188 154.203 198.852 152.859 198.852 151.384C198.852 149.891 199.188 148.547 199.86 147.352C200.532 146.157 201.446 145.205 202.604 144.496C203.78 143.787 205.086 143.432 206.524 143.432C207.681 143.432 208.708 143.665 209.604 144.132C210.518 144.58 211.237 145.215 211.76 146.036L211.2 146.792V137.804H214.868V159H211.396V156.06L211.788 156.788C211.265 157.609 210.537 158.244 209.604 158.692C208.67 159.121 207.653 159.336 206.552 159.336ZM206.944 155.976C207.784 155.976 208.521 155.78 209.156 155.388C209.79 154.996 210.285 154.455 210.64 153.764C211.013 153.073 211.2 152.28 211.2 151.384C211.2 150.507 211.013 149.723 210.64 149.032C210.285 148.323 209.79 147.772 209.156 147.38C208.521 146.988 207.784 146.792 206.944 146.792C206.122 146.792 205.385 146.997 204.732 147.408C204.078 147.8 203.565 148.341 203.192 149.032C202.837 149.704 202.66 150.488 202.66 151.384C202.66 152.28 202.837 153.073 203.192 153.764C203.565 154.455 204.078 154.996 204.732 155.388C205.385 155.78 206.122 155.976 206.944 155.976ZM220.156 152.672L219.904 138.14H223.628L223.376 152.672H220.156ZM219.904 159V155.08H223.628V159H219.904Z" fill="white"/>
<g filter="url(#filter0_d_57_1188)">
<rect x="64" width="100" height="100" rx="20" fill="url(#paint0_linear_57_1188)"/>
<g filter="url(#filter1_d_57_1188)">
<path d="M138.795 24.2437C139.422 24.3693 139.771 25.0417 139.514 25.6264L132.822 40.8577C132.484 41.6265 131.407 41.6618 131.019 40.9167L121.4 22.4135C121.012 21.6685 121.66 20.8067 122.484 20.9718L138.795 24.2437Z" fill="white"/>
<path fill-rule="evenodd" clip-rule="evenodd" d="M85.0563 45.6815C102.195 46.5836 119.232 42.5286 134.127 34.0016L129.655 26.1909C116.261 33.8587 100.942 37.5051 85.5293 36.694L78.794 36.3395L78.7827 36.5542L83.0979 45.5785L85.0563 45.6815Z" fill="white"/>
<path fill-rule="evenodd" clip-rule="evenodd" d="M112.355 45.9441C109.292 46.6254 106.197 47.1622 103.081 47.5522L103.081 55.6616L103.081 72.0808C103.081 80.8577 110.97 88.2736 120.306 88.2736C126.278 88.2736 131.562 85.1785 134.055 80.2202L134.496 79.3442L135.361 77.6235L127.664 72.0529L126.066 75.2293L125.626 76.1053C124.557 78.2297 122.293 79.5558 119.735 79.5558C115.735 79.5558 112.355 76.3784 112.355 72.6179L112.355 56.1987L112.355 45.9441ZM112.355 30.5094L112.355 16.4311L112.355 12.4531L103.081 14.0088L103.081 15.894L103.081 32.4142C106.206 31.9525 109.302 31.3165 112.355 30.5094Z" fill="white"/>
</g>
</g>
<defs>
<filter id="filter0_d_57_1188" x="62" y="0" width="108" height="108" filterUnits="userSpaceOnUse" color-interpolation-filters="sRGB">
<feFlood flood-opacity="0" result="BackgroundImageFix"/>
<feColorMatrix in="SourceAlpha" type="matrix" values="0 0 0 0 0 0 0 0 0 0 0 0 0 0 0 0 0 0 127 0" result="hardAlpha"/>
<feOffset dx="2" dy="4"/>
<feGaussianBlur stdDeviation="2"/>
<feComposite in2="hardAlpha" operator="out"/>
<feColorMatrix type="matrix" values="0 0 0 0 0 0 0 0 0 0 0 0 0 0 0 0 0 0 0.25 0"/>
<feBlend mode="normal" in2="BackgroundImageFix" result="effect1_dropShadow_57_1188"/>
<feBlend mode="normal" in="SourceGraphic" in2="effect1_dropShadow_57_1188" result="shape"/>
</filter>
<filter id="filter1_d_57_1188" x="74.7827" y="12.4531" width="68.8167" height="83.8203" filterUnits="userSpaceOnUse" color-interpolation-filters="sRGB">
<feFlood flood-opacity="0" result="BackgroundImageFix"/>
<feColorMatrix in="SourceAlpha" type="matrix" values="0 0 0 0 0 0 0 0 0 0 0 0 0 0 0 0 0 0 127 0" result="hardAlpha"/>
<feOffset dy="4"/>
<feGaussianBlur stdDeviation="2"/>
<feComposite in2="hardAlpha" operator="out"/>
<feColorMatrix type="matrix" values="0 0 0 0 0 0 0 0 0 0 0 0 0 0 0 0 0 0 0.25 0"/>
<feBlend mode="normal" in2="BackgroundImageFix" result="effect1_dropShadow_57_1188"/>
<feBlend mode="normal" in="SourceGraphic" in2="effect1_dropShadow_57_1188" result="shape"/>
</filter>
<linearGradient id="paint0_linear_57_1188" x1="114" y1="0" x2="114" y2="100" gradientUnits="userSpaceOnUse">
<stop stop-color="#661EC0"/>
<stop offset="1" stop-color="#7CA4FB"/>
</linearGradient>
</defs>
</svg>
