<svg width="351" height="166" viewBox="0 0 351 166" fill="none" xmlns="http://www.w3.org/2000/svg">
<path d="M6.25761 159L0.657609 138.14H4.74561L9.14161 155.92H8.07761L12.6696 138.14H16.6176L21.1816 155.92H20.1176L24.5136 138.14H28.6016L23.0016 159H18.6336L14.0136 141.696H15.2456L10.6256 159H6.25761ZM30.6045 159V137.804H34.2725V146.764L33.7685 146.232C34.1232 145.317 34.7018 144.627 35.5045 144.16C36.3258 143.675 37.2778 143.432 38.3605 143.432C39.4805 143.432 40.4698 143.675 41.3285 144.16C42.2058 144.645 42.8872 145.327 43.3725 146.204C43.8578 147.063 44.1005 148.061 44.1005 149.2V159H40.4325V150.068C40.4325 149.396 40.3018 148.817 40.0405 148.332C39.7792 147.847 39.4152 147.473 38.9485 147.212C38.5005 146.932 37.9685 146.792 37.3525 146.792C36.7552 146.792 36.2232 146.932 35.7565 147.212C35.2898 147.473 34.9258 147.847 34.6645 148.332C34.4032 148.817 34.2725 149.396 34.2725 150.068V159H30.6045ZM51.8221 159.336C50.7581 159.336 49.8341 159.159 49.0501 158.804C48.2661 158.449 47.6595 157.945 47.2301 157.292C46.8008 156.62 46.5861 155.845 46.5861 154.968C46.5861 154.128 46.7728 153.381 47.1461 152.728C47.5195 152.056 48.0981 151.496 48.8821 151.048C49.6661 150.6 50.6555 150.283 51.8501 150.096L56.8341 149.284V152.084L52.5501 152.812C51.8221 152.943 51.2808 153.176 50.9261 153.512C50.5715 153.848 50.3941 154.287 50.3941 154.828C50.3941 155.351 50.5901 155.771 50.9821 156.088C51.3928 156.387 51.8968 156.536 52.4941 156.536C53.2595 156.536 53.9315 156.377 54.5101 156.06C55.1075 155.724 55.5648 155.267 55.8821 154.688C56.2181 154.109 56.3861 153.475 56.3861 152.784V148.864C56.3861 148.211 56.1248 147.669 55.6021 147.24C55.0981 146.792 54.4261 146.568 53.5861 146.568C52.8021 146.568 52.1021 146.783 51.4861 147.212C50.8888 147.623 50.4501 148.173 50.1701 148.864L47.1741 147.408C47.4728 146.605 47.9395 145.915 48.5741 145.336C49.2275 144.739 49.9928 144.272 50.8701 143.936C51.7475 143.6 52.6995 143.432 53.7261 143.432C54.9768 143.432 56.0781 143.665 57.0301 144.132C57.9821 144.58 58.7195 145.215 59.2421 146.036C59.7835 146.839 60.0541 147.781 60.0541 148.864V159H56.5821V156.396L57.3661 156.34C56.9741 156.993 56.5075 157.544 55.9661 157.992C55.4248 158.421 54.8088 158.757 54.1181 159C53.4275 159.224 52.6621 159.336 51.8221 159.336ZM70.1149 159.168C68.3976 159.168 67.0629 158.701 66.1109 157.768C65.1776 156.816 64.7109 155.481 64.7109 153.764V147.044H62.0789V143.768H62.3589C63.1056 143.768 63.6842 143.572 64.0949 143.18C64.5056 142.788 64.7109 142.219 64.7109 141.472V140.296H68.3789V143.768H71.8789V147.044H68.3789V153.568C68.3789 154.072 68.4629 154.501 68.6309 154.856C68.8176 155.211 69.0976 155.481 69.4709 155.668C69.8629 155.855 70.3576 155.948 70.9549 155.948C71.0856 155.948 71.2349 155.939 71.4029 155.92C71.5896 155.901 71.7669 155.883 71.9349 155.864V159C71.6736 159.037 71.3749 159.075 71.0389 159.112C70.7029 159.149 70.3949 159.168 70.1149 159.168ZM88.0299 159.336C86.9285 159.336 85.9112 159.121 84.9779 158.692C84.0632 158.244 83.3352 157.609 82.7939 156.788L83.1579 156.06V159H79.7139V137.804H83.3819V146.792L82.8219 146.036C83.3445 145.215 84.0539 144.58 84.9499 144.132C85.8459 143.665 86.8819 143.432 88.0579 143.432C89.4952 143.432 90.7925 143.787 91.9499 144.496C93.1072 145.205 94.0219 146.157 94.6939 147.352C95.3845 148.547 95.7299 149.891 95.7299 151.384C95.7299 152.859 95.3939 154.203 94.7219 155.416C94.0499 156.629 93.1352 157.591 91.9779 158.3C90.8205 158.991 89.5045 159.336 88.0299 159.336ZM87.6099 155.976C88.4499 155.976 89.1965 155.78 89.8499 155.388C90.5032 154.996 91.0072 154.455 91.3619 153.764C91.7352 153.073 91.9219 152.28 91.9219 151.384C91.9219 150.488 91.7352 149.704 91.3619 149.032C91.0072 148.341 90.5032 147.8 89.8499 147.408C89.1965 146.997 88.4499 146.792 87.6099 146.792C86.8072 146.792 86.0792 146.988 85.4259 147.38C84.7912 147.772 84.2872 148.323 83.9139 149.032C83.5592 149.723 83.3819 150.507 83.3819 151.384C83.3819 152.28 83.5592 153.073 83.9139 153.764C84.2872 154.455 84.7912 154.996 85.4259 155.388C86.0792 155.78 86.8072 155.976 87.6099 155.976ZM98.5264 159V143.768H101.97V147.156L101.69 146.652C102.045 145.513 102.596 144.72 103.342 144.272C104.108 143.824 105.022 143.6 106.086 143.6H106.982V146.848H105.666C104.621 146.848 103.781 147.175 103.146 147.828C102.512 148.463 102.194 149.359 102.194 150.516V159H98.5264ZM108.999 159V143.768H112.667V159H108.999ZM108.999 142.06V138.14H112.667V142.06H108.999ZM116.054 159V143.768H119.498V146.764L119.218 146.232C119.572 145.317 120.151 144.627 120.954 144.16C121.775 143.675 122.727 143.432 123.81 143.432C124.93 143.432 125.919 143.675 126.778 144.16C127.655 144.645 128.336 145.327 128.822 146.204C129.307 147.063 129.55 148.061 129.55 149.2V159H125.882V150.068C125.882 149.396 125.751 148.817 125.49 148.332C125.228 147.847 124.864 147.473 124.398 147.212C123.95 146.932 123.418 146.792 122.802 146.792C122.204 146.792 121.672 146.932 121.206 147.212C120.739 147.473 120.375 147.847 120.114 148.332C119.852 148.817 119.722 149.396 119.722 150.068V159H116.054ZM140.043 165.16C138.905 165.16 137.85 164.973 136.879 164.6C135.909 164.227 135.069 163.704 134.359 163.032C133.669 162.379 133.165 161.604 132.847 160.708L136.263 159.42C136.487 160.129 136.926 160.699 137.579 161.128C138.251 161.576 139.073 161.8 140.043 161.8C140.79 161.8 141.443 161.66 142.003 161.38C142.582 161.1 143.03 160.689 143.347 160.148C143.665 159.625 143.823 158.991 143.823 158.244V154.772L144.523 155.612C144.001 156.527 143.301 157.217 142.423 157.684C141.546 158.151 140.547 158.384 139.427 158.384C138.009 158.384 136.739 158.057 135.619 157.404C134.499 156.751 133.622 155.855 132.987 154.716C132.353 153.577 132.035 152.299 132.035 150.88C132.035 149.443 132.353 148.164 132.987 147.044C133.622 145.924 134.49 145.047 135.591 144.412C136.693 143.759 137.943 143.432 139.343 143.432C140.482 143.432 141.481 143.675 142.339 144.16C143.217 144.627 143.945 145.308 144.523 146.204L144.019 147.128V143.768H147.491V158.244C147.491 159.569 147.165 160.755 146.511 161.8C145.877 162.845 144.999 163.667 143.879 164.264C142.778 164.861 141.499 165.16 140.043 165.16ZM139.875 154.996C140.659 154.996 141.341 154.828 141.919 154.492C142.517 154.137 142.983 153.652 143.319 153.036C143.655 152.42 143.823 151.711 143.823 150.908C143.823 150.124 143.646 149.424 143.291 148.808C142.955 148.173 142.489 147.679 141.891 147.324C141.313 146.969 140.641 146.792 139.875 146.792C139.11 146.792 138.419 146.969 137.803 147.324C137.187 147.679 136.702 148.173 136.347 148.808C136.011 149.424 135.843 150.124 135.843 150.908C135.843 151.692 136.011 152.392 136.347 153.008C136.702 153.624 137.178 154.109 137.775 154.464C138.391 154.819 139.091 154.996 139.875 154.996ZM156.713 159.336C155.089 159.336 153.67 158.953 152.457 158.188C151.262 157.404 150.441 156.349 149.993 155.024L152.737 153.708C153.129 154.567 153.67 155.239 154.361 155.724C155.07 156.209 155.854 156.452 156.713 156.452C157.385 156.452 157.917 156.303 158.309 156.004C158.701 155.705 158.897 155.313 158.897 154.828C158.897 154.529 158.813 154.287 158.645 154.1C158.496 153.895 158.281 153.727 158.001 153.596C157.74 153.447 157.45 153.325 157.133 153.232L154.641 152.532C153.353 152.159 152.373 151.589 151.701 150.824C151.048 150.059 150.721 149.153 150.721 148.108C150.721 147.175 150.954 146.363 151.421 145.672C151.906 144.963 152.569 144.412 153.409 144.02C154.268 143.628 155.248 143.432 156.349 143.432C157.786 143.432 159.056 143.777 160.157 144.468C161.258 145.159 162.042 146.129 162.509 147.38L159.709 148.696C159.448 148.005 159.009 147.455 158.393 147.044C157.777 146.633 157.086 146.428 156.321 146.428C155.705 146.428 155.22 146.568 154.865 146.848C154.51 147.128 154.333 147.492 154.333 147.94C154.333 148.22 154.408 148.463 154.557 148.668C154.706 148.873 154.912 149.041 155.173 149.172C155.453 149.303 155.77 149.424 156.125 149.536L158.561 150.264C159.812 150.637 160.773 151.197 161.445 151.944C162.136 152.691 162.481 153.605 162.481 154.688C162.481 155.603 162.238 156.415 161.753 157.124C161.268 157.815 160.596 158.356 159.737 158.748C158.878 159.14 157.87 159.336 156.713 159.336ZM172.124 165.188C171.714 165.188 171.312 165.151 170.92 165.076C170.528 165.02 170.174 164.917 169.856 164.768V161.688C170.099 161.744 170.388 161.8 170.724 161.856C171.079 161.912 171.406 161.94 171.704 161.94C172.544 161.94 173.151 161.744 173.524 161.352C173.916 160.96 174.262 160.447 174.56 159.812L175.568 157.46L175.512 160.54L168.876 143.768H172.824L177.472 156.144H176.072L180.692 143.768H184.668L178.032 160.54C177.64 161.529 177.164 162.369 176.604 163.06C176.044 163.751 175.391 164.273 174.644 164.628C173.916 165.001 173.076 165.188 172.124 165.188ZM193.857 159.336C192.364 159.336 191.001 158.991 189.769 158.3C188.556 157.609 187.585 156.667 186.857 155.472C186.148 154.277 185.793 152.915 185.793 151.384C185.793 149.853 186.148 148.491 186.857 147.296C187.585 146.101 188.556 145.159 189.769 144.468C190.983 143.777 192.345 143.432 193.857 143.432C195.351 143.432 196.704 143.777 197.917 144.468C199.131 145.159 200.092 146.101 200.801 147.296C201.529 148.472 201.893 149.835 201.893 151.384C201.893 152.915 201.529 154.277 200.801 155.472C200.073 156.667 199.103 157.609 197.889 158.3C196.676 158.991 195.332 159.336 193.857 159.336ZM193.857 155.976C194.679 155.976 195.397 155.78 196.013 155.388C196.648 154.996 197.143 154.455 197.497 153.764C197.871 153.055 198.057 152.261 198.057 151.384C198.057 150.488 197.871 149.704 197.497 149.032C197.143 148.341 196.648 147.8 196.013 147.408C195.397 146.997 194.679 146.792 193.857 146.792C193.017 146.792 192.28 146.997 191.645 147.408C191.011 147.8 190.507 148.341 190.133 149.032C189.779 149.704 189.601 150.488 189.601 151.384C189.601 152.261 189.779 153.055 190.133 153.764C190.507 154.455 191.011 154.996 191.645 155.388C192.28 155.78 193.017 155.976 193.857 155.976ZM210.107 159.336C208.931 159.336 207.904 159.075 207.027 158.552C206.168 158.029 205.505 157.301 205.039 156.368C204.591 155.435 204.367 154.343 204.367 153.092V143.768H208.035V152.784C208.035 153.419 208.156 153.979 208.399 154.464C208.66 154.931 209.024 155.304 209.491 155.584C209.976 155.845 210.517 155.976 211.115 155.976C211.712 155.976 212.244 155.845 212.711 155.584C213.177 155.304 213.541 154.921 213.803 154.436C214.064 153.951 214.195 153.372 214.195 152.7V143.768H217.863V159H214.391V156.004L214.699 156.536C214.344 157.469 213.756 158.169 212.935 158.636C212.132 159.103 211.189 159.336 210.107 159.336ZM226.249 159V143.768H229.917V159H226.249ZM226.249 142.06V138.14H229.917V142.06H226.249ZM233.304 159V143.768H236.748V146.764L236.468 146.232C236.822 145.317 237.401 144.627 238.204 144.16C239.025 143.675 239.977 143.432 241.06 143.432C242.18 143.432 243.169 143.675 244.028 144.16C244.905 144.645 245.586 145.327 246.072 146.204C246.557 147.063 246.8 148.061 246.8 149.2V159H243.132V150.068C243.132 149.396 243.001 148.817 242.74 148.332C242.478 147.847 242.114 147.473 241.648 147.212C241.2 146.932 240.668 146.792 240.052 146.792C239.454 146.792 238.922 146.932 238.456 147.212C237.989 147.473 237.625 147.847 237.364 148.332C237.102 148.817 236.972 149.396 236.972 150.068V159H233.304ZM261.822 159.168C260.105 159.168 258.77 158.701 257.818 157.768C256.885 156.816 256.418 155.481 256.418 153.764V147.044H253.786V143.768H254.066C254.813 143.768 255.391 143.572 255.802 143.18C256.213 142.788 256.418 142.219 256.418 141.472V140.296H260.086V143.768H263.586V147.044H260.086V153.568C260.086 154.072 260.17 154.501 260.338 154.856C260.525 155.211 260.805 155.481 261.178 155.668C261.57 155.855 262.065 155.948 262.662 155.948C262.793 155.948 262.942 155.939 263.11 155.92C263.297 155.901 263.474 155.883 263.642 155.864V159C263.381 159.037 263.082 159.075 262.746 159.112C262.41 159.149 262.102 159.168 261.822 159.168ZM273.756 159.336C272.262 159.336 270.9 158.991 269.668 158.3C268.454 157.609 267.484 156.667 266.756 155.472C266.046 154.277 265.692 152.915 265.692 151.384C265.692 149.853 266.046 148.491 266.756 147.296C267.484 146.101 268.454 145.159 269.668 144.468C270.881 143.777 272.244 143.432 273.756 143.432C275.249 143.432 276.602 143.777 277.816 144.468C279.029 145.159 279.99 146.101 280.7 147.296C281.428 148.472 281.792 149.835 281.792 151.384C281.792 152.915 281.428 154.277 280.7 155.472C279.972 156.667 279.001 157.609 277.788 158.3C276.574 158.991 275.23 159.336 273.756 159.336ZM273.756 155.976C274.577 155.976 275.296 155.78 275.912 155.388C276.546 154.996 277.041 154.455 277.396 153.764C277.769 153.055 277.956 152.261 277.956 151.384C277.956 150.488 277.769 149.704 277.396 149.032C277.041 148.341 276.546 147.8 275.912 147.408C275.296 146.997 274.577 146.792 273.756 146.792C272.916 146.792 272.178 146.997 271.544 147.408C270.909 147.8 270.405 148.341 270.032 149.032C269.677 149.704 269.5 150.488 269.5 151.384C269.5 152.261 269.677 153.055 270.032 153.764C270.405 154.455 270.909 154.996 271.544 155.388C272.178 155.78 272.916 155.976 273.756 155.976ZM291.657 159.336C290.183 159.336 288.867 158.991 287.709 158.3C286.552 157.591 285.637 156.629 284.965 155.416C284.293 154.203 283.957 152.859 283.957 151.384C283.957 149.891 284.293 148.547 284.965 147.352C285.637 146.157 286.552 145.205 287.709 144.496C288.885 143.787 290.192 143.432 291.629 143.432C292.787 143.432 293.813 143.665 294.709 144.132C295.624 144.58 296.343 145.215 296.865 146.036L296.305 146.792V137.804H299.973V159H296.501V156.06L296.893 156.788C296.371 157.609 295.643 158.244 294.709 158.692C293.776 159.121 292.759 159.336 291.657 159.336ZM292.049 155.976C292.889 155.976 293.627 155.78 294.261 155.388C294.896 154.996 295.391 154.455 295.745 153.764C296.119 153.073 296.305 152.28 296.305 151.384C296.305 150.507 296.119 149.723 295.745 149.032C295.391 148.323 294.896 147.772 294.261 147.38C293.627 146.988 292.889 146.792 292.049 146.792C291.228 146.792 290.491 146.997 289.837 147.408C289.184 147.8 288.671 148.341 288.297 149.032C287.943 149.704 287.765 150.488 287.765 151.384C287.765 152.28 287.943 153.073 288.297 153.764C288.671 154.455 289.184 154.996 289.837 155.388C290.491 155.78 291.228 155.976 292.049 155.976ZM308.006 159.336C306.942 159.336 306.018 159.159 305.234 158.804C304.45 158.449 303.843 157.945 303.414 157.292C302.984 156.62 302.77 155.845 302.77 154.968C302.77 154.128 302.956 153.381 303.33 152.728C303.703 152.056 304.282 151.496 305.066 151.048C305.85 150.6 306.839 150.283 308.034 150.096L313.018 149.284V152.084L308.734 152.812C308.006 152.943 307.464 153.176 307.11 153.512C306.755 153.848 306.578 154.287 306.578 154.828C306.578 155.351 306.774 155.771 307.166 156.088C307.576 156.387 308.08 156.536 308.678 156.536C309.443 156.536 310.115 156.377 310.694 156.06C311.291 155.724 311.748 155.267 312.066 154.688C312.402 154.109 312.57 153.475 312.57 152.784V148.864C312.57 148.211 312.308 147.669 311.786 147.24C311.282 146.792 310.61 146.568 309.77 146.568C308.986 146.568 308.286 146.783 307.67 147.212C307.072 147.623 306.634 148.173 306.354 148.864L303.358 147.408C303.656 146.605 304.123 145.915 304.758 145.336C305.411 144.739 306.176 144.272 307.054 143.936C307.931 143.6 308.883 143.432 309.91 143.432C311.16 143.432 312.262 143.665 313.214 144.132C314.166 144.58 314.903 145.215 315.426 146.036C315.967 146.839 316.238 147.781 316.238 148.864V159H312.766V156.396L313.55 156.34C313.158 156.993 312.691 157.544 312.15 157.992C311.608 158.421 310.992 158.757 310.302 159C309.611 159.224 308.846 159.336 308.006 159.336ZM321.476 165.188C321.065 165.188 320.664 165.151 320.272 165.076C319.88 165.02 319.525 164.917 319.208 164.768V161.688C319.451 161.744 319.74 161.8 320.076 161.856C320.431 161.912 320.757 161.94 321.056 161.94C321.896 161.94 322.503 161.744 322.876 161.352C323.268 160.96 323.613 160.447 323.912 159.812L324.92 157.46L324.864 160.54L318.228 143.768H322.176L326.824 156.144H325.424L330.044 143.768H334.02L327.384 160.54C326.992 161.529 326.516 162.369 325.956 163.06C325.396 163.751 324.743 164.273 323.996 164.628C323.268 165.001 322.428 165.188 321.476 165.188ZM340.234 152.672V152.112C340.234 151.291 340.356 150.563 340.598 149.928C340.86 149.293 341.186 148.733 341.578 148.248C341.97 147.744 342.381 147.287 342.81 146.876C343.389 146.297 343.902 145.765 344.35 145.28C344.817 144.776 345.05 144.188 345.05 143.516C345.05 143.105 344.948 142.723 344.742 142.368C344.537 142.013 344.229 141.733 343.818 141.528C343.426 141.323 342.941 141.22 342.362 141.22C341.578 141.22 340.897 141.463 340.318 141.948C339.758 142.433 339.413 143.077 339.282 143.88L335.866 143.04C336.034 141.995 336.408 141.08 336.986 140.296C337.584 139.512 338.349 138.905 339.282 138.476C340.234 138.028 341.289 137.804 342.446 137.804C343.809 137.804 344.966 138.075 345.918 138.616C346.889 139.157 347.626 139.857 348.13 140.716C348.634 141.575 348.886 142.48 348.886 143.432C348.886 144.179 348.737 144.841 348.438 145.42C348.14 145.999 347.766 146.531 347.318 147.016C346.889 147.483 346.441 147.949 345.974 148.416C345.377 148.976 344.854 149.564 344.406 150.18C343.958 150.796 343.734 151.515 343.734 152.336V152.672H340.234ZM340.15 159V155.08H343.874V159H340.15Z" fill="white"/>
<g filter="url(#filter0_d_57_890)">
<rect x="126" width="100" height="100" rx="20" fill="url(#paint0_linear_57_890)"/>
<g filter="url(#filter1_d_57_890)">
<path d="M200.795 24.2438C201.422 24.3694 201.771 25.0418 201.514 25.6265L194.822 40.8578C194.484 41.6266 193.407 41.6619 193.019 40.9168L183.4 22.4137C183.012 21.6686 183.66 20.8068 184.484 20.9719L200.795 24.2438Z" fill="white"/>
<path fill-rule="evenodd" clip-rule="evenodd" d="M147.056 45.6815C164.195 46.5836 181.232 42.5286 196.127 34.0016L191.655 26.1909C178.261 33.8587 162.942 37.5051 147.529 36.694L140.794 36.3395L140.783 36.5542L145.098 45.5785L147.056 45.6815Z" fill="white"/>
<path fill-rule="evenodd" clip-rule="evenodd" d="M174.355 45.9441C171.292 46.6254 168.197 47.1622 165.081 47.5522L165.081 55.6616L165.081 72.0808C165.081 80.8577 172.97 88.2736 182.306 88.2736C188.278 88.2736 193.562 85.1785 196.055 80.2202L196.496 79.3442L197.361 77.6235L189.664 72.0529L188.066 75.2293L187.626 76.1053C186.557 78.2297 184.293 79.5558 181.735 79.5558C177.735 79.5558 174.355 76.3784 174.355 72.6179L174.355 56.1987L174.355 45.9441ZM174.355 30.5094L174.355 16.4311L174.355 12.4531L165.081 14.0088V15.894L165.081 32.4142C168.206 31.9525 171.302 31.3165 174.355 30.5094Z" fill="white"/>
</g>
</g>
<defs>
<filter id="filter0_d_57_890" x="124" y="0" width="108" height="108" filterUnits="userSpaceOnUse" color-interpolation-filters="sRGB">
<feFlood flood-opacity="0" result="BackgroundImageFix"/>
<feColorMatrix in="SourceAlpha" type="matrix" values="0 0 0 0 0 0 0 0 0 0 0 0 0 0 0 0 0 0 127 0" result="hardAlpha"/>
<feOffset dx="2" dy="4"/>
<feGaussianBlur stdDeviation="2"/>
<feComposite in2="hardAlpha" operator="out"/>
<feColorMatrix type="matrix" values="0 0 0 0 0 0 0 0 0 0 0 0 0 0 0 0 0 0 0.25 0"/>
<feBlend mode="normal" in2="BackgroundImageFix" result="effect1_dropShadow_57_890"/>
<feBlend mode="normal" in="SourceGraphic" in2="effect1_dropShadow_57_890" result="shape"/>
</filter>
<filter id="filter1_d_57_890" x="136.783" y="12.4531" width="68.8167" height="83.8206" filterUnits="userSpaceOnUse" color-interpolation-filters="sRGB">
<feFlood flood-opacity="0" result="BackgroundImageFix"/>
<feColorMatrix in="SourceAlpha" type="matrix" values="0 0 0 0 0 0 0 0 0 0 0 0 0 0 0 0 0 0 127 0" result="hardAlpha"/>
<feOffset dy="4"/>
<feGaussianBlur stdDeviation="2"/>
<feComposite in2="hardAlpha" operator="out"/>
<feColorMatrix type="matrix" values="0 0 0 0 0 0 0 0 0 0 0 0 0 0 0 0 0 0 0.25 0"/>
<feBlend mode="normal" in2="BackgroundImageFix" result="effect1_dropShadow_57_890"/>
<feBlend mode="normal" in="SourceGraphic" in2="effect1_dropShadow_57_890" result="shape"/>
</filter>
<linearGradient id="paint0_linear_57_890" x1="176" y1="0" x2="176" y2="100" gradientUnits="userSpaceOnUse">
<stop stop-color="#661EC0"/>
<stop offset="1" stop-color="#7CA4FB"/>
</linearGradient>
</defs>
</svg>
