<svg width="50" height="50" viewBox="0 0 50 50" fill="none" xmlns="http://www.w3.org/2000/svg">
<path fill-rule="evenodd" clip-rule="evenodd" d="M45.8334 41.6665V27.0832H41.6667V41.6665H8.33341V8.33317H22.9167V4.1665H8.33341C6.03223 4.1665 4.16675 6.03198 4.16675 8.33317V41.6665C4.16675 43.9677 6.03223 45.8332 8.33341 45.8332H41.6667C43.9679 45.8332 45.8334 43.9677 45.8334 41.6665ZM39.9545 5.67363C38.9995 4.71113 37.6919 4.1665 36.3279 4.1665C34.9654 4.1665 33.6592 4.7099 32.6988 5.67615L15.2636 23.1111C13.7056 24.4839 12.6843 26.5266 12.5068 28.7234L12.5001 35.4214V37.5047H21.1138C23.477 37.3426 25.5397 36.3113 26.9949 34.6327L44.3313 17.3037C45.2932 16.3418 45.8335 15.0373 45.8335 13.6771C45.8335 12.3169 45.2932 11.0123 44.3313 10.0505L39.9545 5.67363ZM20.9667 33.3432C22.0797 33.2644 23.1157 32.7465 23.9476 31.7949L36.5765 19.1659L30.8384 13.4275L18.117 26.1448C17.2729 26.8913 16.7507 27.9357 16.6667 28.8911V33.3393L20.9667 33.3432ZM33.7852 10.4817L39.5228 16.2196L41.3851 14.3574C41.5655 14.177 41.6669 13.9322 41.6669 13.6771C41.6669 13.4219 41.5655 13.1772 41.3851 12.9968L37.0024 8.61412C36.824 8.43431 36.5812 8.33317 36.3279 8.33317C36.0746 8.33317 35.8318 8.43431 35.6534 8.61412L33.7852 10.4817Z" fill="white" fill-opacity="0.75"/>
</svg>
