<svg width="38" height="40" viewBox="0 0 38 40" fill="none" xmlns="http://www.w3.org/2000/svg">
<path d="M34.8334 20.0002C34.8334 10.8168 27.7242 3.3335 19.0001 3.3335C10.2759 3.3335 3.16675 10.8168 3.16675 20.0002C3.16675 24.8335 5.14591 29.1835 8.28091 32.2335C8.28091 32.2502 8.28091 32.2502 8.26508 32.2668C8.42341 32.4335 8.61341 32.5668 8.77175 32.7168C8.86675 32.8002 8.94591 32.8835 9.04091 32.9502C9.32591 33.2002 9.64258 33.4335 9.94341 33.6668C10.0542 33.7502 10.1492 33.8168 10.2601 33.9002C10.5609 34.1168 10.8776 34.3168 11.2101 34.5002C11.3209 34.5668 11.4476 34.6502 11.5584 34.7168C11.8751 34.9002 12.2076 35.0668 12.5559 35.2168C12.6826 35.2835 12.8092 35.3502 12.9359 35.4002C13.2842 35.5502 13.6326 35.6835 13.9809 35.8002C14.1076 35.8502 14.2342 35.9002 14.3609 35.9335C14.7409 36.0502 15.1209 36.1502 15.5009 36.2502C15.6117 36.2835 15.7226 36.3168 15.8492 36.3335C16.2926 36.4335 16.7359 36.5002 17.1951 36.5502C17.2584 36.5502 17.3217 36.5668 17.3851 36.5835C17.9234 36.6335 18.4617 36.6668 19.0001 36.6668C19.5384 36.6668 20.0767 36.6335 20.5992 36.5835C20.6626 36.5835 20.7259 36.5668 20.7892 36.5502C21.2484 36.5002 21.6917 36.4335 22.1351 36.3335C22.2459 36.3168 22.3567 36.2668 22.4834 36.2502C22.8634 36.1502 23.2592 36.0668 23.6234 35.9335C23.7501 35.8835 23.8767 35.8335 24.0034 35.8002C24.3517 35.6668 24.7159 35.5502 25.0484 35.4002C25.1751 35.3502 25.3017 35.2835 25.4284 35.2168C25.7609 35.0668 26.0934 34.9002 26.4259 34.7168C26.5526 34.6502 26.6634 34.5668 26.7742 34.5002C27.0909 34.3002 27.4076 34.1168 27.7242 33.9002C27.8351 33.8335 27.9301 33.7502 28.0409 33.6668C28.3576 33.4335 28.6584 33.2002 28.9434 32.9502C29.0384 32.8668 29.1176 32.7835 29.2126 32.7168C29.3867 32.5668 29.5609 32.4168 29.7192 32.2668C29.7192 32.2502 29.7192 32.2502 29.7034 32.2335C32.8542 29.1835 34.8334 24.8335 34.8334 20.0002ZM26.8217 28.2835C22.5309 25.2502 15.5009 25.2502 11.1784 28.2835C10.4817 28.7668 9.91175 29.3335 9.43675 29.9502C7.03008 27.3835 5.54175 23.8668 5.54175 20.0002C5.54175 12.1835 11.5742 5.8335 19.0001 5.8335C26.4259 5.8335 32.4584 12.1835 32.4584 20.0002C32.4584 23.8668 30.9701 27.3835 28.5634 29.9502C28.1042 29.3335 27.5184 28.7668 26.8217 28.2835Z" fill="white"/>
<path d="M19 11.5498C15.7225 11.5498 13.0625 14.3498 13.0625 17.7998C13.0625 21.1831 15.58 23.9331 18.9208 24.0331C18.9683 24.0331 19.0317 24.0331 19.0633 24.0331C19.095 24.0331 19.1425 24.0331 19.1742 24.0331C19.19 24.0331 19.2058 24.0331 19.2058 24.0331C22.4042 23.9165 24.9217 21.1831 24.9375 17.7998C24.9375 14.3498 22.2775 11.5498 19 11.5498Z" fill="white"/>
</svg>
