<svg width="32" height="27" viewBox="0 0 32 27" fill="none" xmlns="http://www.w3.org/2000/svg">
<path d="M3.86084 12.874C3.86084 6.31617 9.17701 1 15.7348 1C22.2927 1 27.6088 6.31617 27.6088 12.874V26H3.86084V12.874Z" stroke="white" stroke-width="2"/>
<ellipse cx="10.9668" cy="11.5273" rx="1.43045" ry="1.5" fill="white"/>
<ellipse cx="19.794" cy="11.5273" rx="1.43045" ry="1.5" fill="white"/>
<path d="M13.8508 14.401C13.8508 14.3981 13.8513 14.3966 13.8517 14.3956C13.8523 14.3943 13.8534 14.3926 13.855 14.3909C13.8567 14.3892 13.8584 14.3882 13.8597 14.3876C13.8607 14.3872 13.8622 14.3867 13.8651 14.3867H17.2505C17.2534 14.3867 17.2549 14.3872 17.2559 14.3876C17.2572 14.3882 17.2589 14.3892 17.2606 14.3909C17.2622 14.3926 17.2633 14.3943 17.2639 14.3956C17.2643 14.3966 17.2648 14.3981 17.2648 14.401V14.7655C17.2648 15.7082 16.5005 16.4724 15.5578 16.4724C14.6151 16.4724 13.8508 15.7082 13.8508 14.7655V14.401Z" stroke="white"/>
<mask id="path-5-inside-1_98_1782" fill="white">
<path d="M0 14.656C0 12.9518 1.38152 11.5703 3.08572 11.5703H3.90035V17.7417H3.08572C1.38152 17.7417 0 16.3602 0 14.656Z"/>
</mask>
<path d="M-2 14.656C-2 11.8473 0.276952 9.57031 3.08571 9.57031H3.90035V13.5703H3.08571C2.48609 13.5703 2 14.0564 2 14.656H-2ZM3.90035 19.7417H3.08571C0.276952 19.7417 -2 17.4648 -2 14.656H2C2 15.2557 2.48609 15.7417 3.08571 15.7417H3.90035V19.7417ZM3.08571 19.7417C0.276952 19.7417 -2 17.4648 -2 14.656C-2 11.8473 0.276952 9.57031 3.08571 9.57031V13.5703C2.48609 13.5703 2 14.0564 2 14.656C2 15.2557 2.48609 15.7417 3.08571 15.7417V19.7417ZM3.90035 11.5703V17.7417V11.5703Z" fill="white" mask="url(#path-5-inside-1_98_1782)"/>
<mask id="path-7-inside-2_98_1782" fill="white">
<path d="M31.6338 14.656C31.6338 12.9518 30.2523 11.5703 28.5481 11.5703H27.7334V17.7417H28.5481C30.2523 17.7417 31.6338 16.3602 31.6338 14.656Z"/>
</mask>
<path d="M33.6338 14.656C33.6338 11.8473 31.3568 9.57031 28.5481 9.57031H27.7334V13.5703H28.5481C29.1477 13.5703 29.6338 14.0564 29.6338 14.656H33.6338ZM27.7334 19.7417H28.5481C31.3568 19.7417 33.6338 17.4648 33.6338 14.656H29.6338C29.6338 15.2557 29.1477 15.7417 28.5481 15.7417H27.7334V19.7417ZM28.5481 19.7417C31.3568 19.7417 33.6338 17.4648 33.6338 14.656C33.6338 11.8473 31.3568 9.57031 28.5481 9.57031V13.5703C29.1477 13.5703 29.6338 14.0564 29.6338 14.656C29.6338 15.2557 29.1477 15.7417 28.5481 15.7417V19.7417ZM27.7334 11.5703V17.7417V11.5703Z" fill="white" mask="url(#path-7-inside-2_98_1782)"/>
<rect x="12.8972" y="17.4727" width="6.35657" height="2.08571" rx="1.04286" stroke="white"/>
<path d="M19.4937 18.9009L24.2755 18.9009L28.9 18.9009C29.9109 18.9009 30.3574 17.6199 29.5625 17V17" stroke="white"/>
</svg>
