<svg width="104" height="47" viewBox="0 0 104 47" fill="none" xmlns="http://www.w3.org/2000/svg">
<path d="M35.3896 7.44851C36.0158 7.57411 36.3654 8.24652 36.1085 8.83124L32.6291 16.7502C32.2913 17.519 31.2136 17.5543 30.8263 16.8092L25.825 7.18915C25.4376 6.44409 26.0856 5.58226 26.9089 5.74741L35.3896 7.44851Z" fill="white"/>
<path fill-rule="evenodd" clip-rule="evenodd" d="M3.61797 20.7084C13.9591 21.2527 24.238 18.806 33.225 13.6612L30.244 8.4541C22.2576 13.0261 13.1231 15.2004 3.93332 14.7167L0 14.5097L2.94721 20.6731L3.61797 20.7084Z" fill="white"/>
<path fill-rule="evenodd" clip-rule="evenodd" d="M20.322 19.9841C18.3025 20.4487 16.259 20.8074 14.1999 21.0585C14.1798 21.0609 14.1597 21.0634 14.1397 21.0658L14.1397 26.3793L14.1396 36.2308C14.1396 41.6642 19.0231 46.255 24.8028 46.255C28.4995 46.255 31.7706 44.339 33.3143 41.2695L33.5786 40.7439L33.9379 40.0294L28.8062 36.3157L27.9588 38.0006L27.6945 38.5262C27.101 39.7064 25.8432 40.4431 24.4219 40.4431C22.1997 40.4431 20.322 38.678 20.322 36.5889L20.322 26.7373L20.322 19.9841ZM20.322 11.741L20.322 2.8768L20.322 0.724121L14.1396 1.76121V2.51873L14.1397 12.9984C14.1597 12.9956 14.1798 12.9927 14.1999 12.9899C16.2227 12.7041 18.2262 12.2979 20.1999 11.7736C20.2406 11.7627 20.2813 11.7519 20.322 11.741Z" fill="white"/>
<path d="M33.4571 34.276C32.1691 34.276 31.0421 33.9847 30.0761 33.402C29.1101 32.8193 28.3588 32.0297 27.8221 31.033C27.2855 30.0363 27.0171 28.9323 27.0171 27.721C27.0171 26.4637 27.2855 25.352 27.8221 24.386C28.3741 23.4047 29.1178 22.6303 30.0531 22.063C31.0038 21.4957 32.0618 21.212 33.2271 21.212C34.2085 21.212 35.0671 21.373 35.8031 21.695C36.5545 22.017 37.1908 22.4617 37.7121 23.029C38.2335 23.5963 38.6321 24.248 38.9081 24.984C39.1841 25.7047 39.3221 26.4867 39.3221 27.33C39.3221 27.5447 39.3068 27.767 39.2761 27.997C39.2608 28.227 39.2225 28.4263 39.1611 28.595H29.5011V26.295H37.4591L36.0331 27.376C36.1711 26.6707 36.1328 26.042 35.9181 25.49C35.7188 24.938 35.3815 24.501 34.9061 24.179C34.4461 23.857 33.8865 23.696 33.2271 23.696C32.5985 23.696 32.0388 23.857 31.5481 24.179C31.0575 24.4857 30.6818 24.9457 30.4211 25.559C30.1758 26.157 30.0838 26.8853 30.1451 27.744C30.0838 28.5107 30.1835 29.193 30.4441 29.791C30.7201 30.3737 31.1188 30.826 31.6401 31.148C32.1768 31.47 32.7901 31.631 33.4801 31.631C34.1701 31.631 34.7528 31.4853 35.2281 31.194C35.7188 30.9027 36.1021 30.5117 36.3781 30.021L38.8161 31.217C38.5708 31.815 38.1875 32.344 37.6661 32.804C37.1448 33.264 36.5238 33.6243 35.8031 33.885C35.0978 34.1457 34.3158 34.276 33.4571 34.276ZM47.6321 34.276C46.3901 34.276 45.2708 33.9923 44.2741 33.425C43.2928 32.8423 42.5185 32.0603 41.9511 31.079C41.3838 30.0823 41.1001 28.963 41.1001 27.721C41.1001 26.479 41.3838 25.3673 41.9511 24.386C42.5185 23.4047 43.2928 22.6303 44.2741 22.063C45.2708 21.4957 46.3901 21.212 47.6321 21.212C48.5215 21.212 49.3495 21.373 50.1161 21.695C50.8828 22.0017 51.5421 22.431 52.0941 22.983C52.6615 23.5197 53.0678 24.1637 53.3131 24.915L50.6681 26.065C50.4381 25.4363 50.0471 24.9303 49.4951 24.547C48.9585 24.1637 48.3375 23.972 47.6321 23.972C46.9728 23.972 46.3825 24.133 45.8611 24.455C45.3551 24.777 44.9565 25.2217 44.6651 25.789C44.3738 26.3563 44.2281 27.008 44.2281 27.744C44.2281 28.48 44.3738 29.1317 44.6651 29.699C44.9565 30.2663 45.3551 30.711 45.8611 31.033C46.3825 31.355 46.9728 31.516 47.6321 31.516C48.3528 31.516 48.9815 31.3243 49.5181 30.941C50.0548 30.5577 50.4381 30.044 50.6681 29.4L53.3131 30.596C53.0678 31.3013 52.6691 31.9377 52.1171 32.505C51.5651 33.057 50.9058 33.494 50.1391 33.816C49.3725 34.1227 48.5368 34.276 47.6321 34.276ZM55.5993 34V16.589H58.6123V23.949L58.1983 23.512C58.4896 22.7607 58.965 22.1933 59.6243 21.81C60.299 21.4113 61.081 21.212 61.9703 21.212C62.8903 21.212 63.703 21.4113 64.4083 21.81C65.129 22.2087 65.6886 22.7683 66.0873 23.489C66.486 24.1943 66.6853 25.0147 66.6853 25.95V34H63.6723V26.663C63.6723 26.111 63.565 25.6357 63.3503 25.237C63.1356 24.8383 62.8366 24.5317 62.4533 24.317C62.0853 24.087 61.6483 23.972 61.1423 23.972C60.6516 23.972 60.2146 24.087 59.8313 24.317C59.448 24.5317 59.149 24.8383 58.9343 25.237C58.7196 25.6357 58.6123 26.111 58.6123 26.663V34H55.5993ZM80.175 34.276C78.8563 34.276 77.6833 34 76.656 33.448C75.644 32.896 74.8466 32.137 74.264 31.171C73.6813 30.205 73.39 29.1087 73.39 27.882V16.865H76.518V27.721C76.518 28.4263 76.6713 29.0627 76.978 29.63C77.3 30.1973 77.737 30.642 78.289 30.964C78.841 31.2707 79.4696 31.424 80.175 31.424C80.8956 31.424 81.5243 31.2707 82.061 30.964C82.613 30.642 83.0423 30.1973 83.349 29.63C83.671 29.0627 83.832 28.4263 83.832 27.721V16.865H86.96V27.882C86.96 29.1087 86.6686 30.205 86.086 31.171C85.5033 32.137 84.6983 32.896 83.671 33.448C82.659 34 81.4936 34.276 80.175 34.276ZM89.8298 38.6V21.488H92.6588V23.972L92.3828 23.351C92.8121 22.6763 93.3948 22.155 94.1308 21.787C94.8668 21.4037 95.7178 21.212 96.6838 21.212C97.8644 21.212 98.9301 21.5033 99.8808 22.086C100.831 22.6687 101.583 23.4507 102.135 24.432C102.702 25.4133 102.986 26.5173 102.986 27.744C102.986 28.9553 102.71 30.0593 102.158 31.056C101.606 32.0527 100.854 32.8423 99.9038 33.425C98.9531 33.9923 97.8721 34.276 96.6608 34.276C95.7561 34.276 94.9204 34.0997 94.1538 33.747C93.4024 33.379 92.8044 32.8577 92.3598 32.183L92.8428 31.585V38.6H89.8298ZM96.3158 31.516C97.0058 31.516 97.6191 31.355 98.1558 31.033C98.6924 30.711 99.1064 30.2663 99.3978 29.699C99.7044 29.1317 99.8578 28.48 99.8578 27.744C99.8578 27.008 99.7044 26.364 99.3978 25.812C99.1064 25.2447 98.6924 24.8 98.1558 24.478C97.6191 24.1407 97.0058 23.972 96.3158 23.972C95.6564 23.972 95.0584 24.133 94.5218 24.455C94.0004 24.777 93.5864 25.2293 93.2798 25.812C92.9884 26.3793 92.8428 27.0233 92.8428 27.744C92.8428 28.48 92.9884 29.1317 93.2798 29.699C93.5864 30.2663 94.0004 30.711 94.5218 31.033C95.0584 31.355 95.6564 31.516 96.3158 31.516Z" fill="white"/>
</svg>
